<svg width="24" height="24" viewBox="0 0 24 24" fill="none" xmlns="http://www.w3.org/2000/svg">
<path d="M17.935 5.59706C18.2063 5.30611 18.5821 5.13486 18.9797 5.12097C19.3772 5.10709 19.764 5.25171 20.055 5.52303C20.3459 5.79434 20.5172 6.17013 20.5311 6.56771C20.545 6.96529 20.4003 7.35211 20.129 7.64306L9.21706 19.3447C8.94574 19.6357 8.56996 19.8069 8.17238 19.8208C7.7748 19.8347 7.38798 19.6901 7.09703 19.4187C6.80608 19.1474 6.63483 18.7717 6.62094 18.3741C6.60706 17.9765 6.75168 17.5897 7.023 17.2987L17.935 5.59706Z" fill="#1F1F1F"/>
<path d="M20.1291 17.2987C20.4004 17.5896 20.545 17.9765 20.5311 18.374C20.5172 18.7716 20.346 19.1474 20.055 19.4187C19.7641 19.69 19.3773 19.8347 18.9797 19.8208C18.5821 19.8069 18.2063 19.6356 17.935 19.3447L7.02303 7.64303C6.75171 7.35208 6.60709 6.96526 6.62097 6.56768C6.63486 6.1701 6.80611 5.79431 7.09706 5.523C7.38801 5.25168 7.77483 5.10706 8.17241 5.12094C8.56999 5.13483 8.94577 5.30608 9.21709 5.59703L20.1291 17.2987Z" fill="#1F1F1F"/>
</svg>
