<svg width="34" height="32" viewBox="0 0 34 32" fill="none" xmlns="http://www.w3.org/2000/svg">
<path d="M6.52956 6.20171C7.19574 10.7005 9.62257 14.4131 13.5245 16.728C16.0465 18.2568 19.0919 19.4361 19.5202 19.0866C19.7581 18.8246 18.283 16.8591 15.6183 13.8016C14.0004 11.9672 13.9528 11.7925 15.0948 12.7097C17.1885 14.2821 19.2347 16.2039 20.4243 17.6453L21.4236 18.8683L21.7567 17.6016C22.3277 15.112 20.3767 10.8752 17.712 8.86606C16.6651 8.07986 12.9535 6.33275 10.2888 5.37183C9.00397 4.89138 7.57642 4.36725 7.05299 4.19254C6.24405 3.88679 6.19646 4.01783 6.52956 6.20171Z" fill="#81C784"/>
<path d="M29.3351 2.09644C26.5751 4.49872 24.6242 7.68719 24.1959 10.7446C23.8152 13.3653 24.3862 17.7331 25.1 17.5147C25.3855 17.4273 26.3372 15.5055 27.1937 13.2343C28.7165 9.21592 28.764 9.17224 28.4785 11.5308C28.2882 12.8412 27.8123 15.0687 27.3365 16.4227C26.8606 17.8204 26.5751 18.9561 26.7179 18.9561C27.3365 18.9561 29.6206 17.602 30.4771 16.6848C33.3322 13.8458 33.9032 10.5262 32.666 4.32401L31.8095 -8.96454e-05L29.3351 2.09644Z" fill="#81C784"/>
<path d="M11.1348 20.934C9.85005 21.2398 6.80463 22.2444 4.3778 23.1616L0 24.8214L0.999281 26.088C2.33166 27.8351 5.80535 30.0627 8.61285 30.9799C11.7059 31.9845 17.2733 31.6788 20.7946 30.3248C22.1269 29.7569 23.269 29.1891 23.269 29.0144C23.269 28.3593 20.0808 27.6604 14.9416 27.2236C12.0865 26.9616 9.65971 26.6995 9.56454 26.6121C9.46937 26.5685 10.7066 26.3501 12.3245 26.1754C15.2271 25.8696 20.8897 26.219 23.3641 26.8305C25.0296 27.311 25.0296 26.9616 23.3165 24.7777C21.6035 22.5938 19.7953 21.4145 17.3209 20.7593C14.9892 20.1915 14.1327 20.1915 11.1348 20.934Z" fill="#81C784"/>
</svg>
