<svg width="24" height="24" viewBox="0 0 24 24" fill="none" xmlns="http://www.w3.org/2000/svg">
<path d="M12.5929 23.2579L12.5819 23.2599L12.5109 23.2949L12.4909 23.2989L12.4769 23.2949L12.4059 23.2599C12.3953 23.2566 12.3873 23.2583 12.3819 23.2649L12.3779 23.2749L12.3609 23.7029L12.3659 23.7229L12.3759 23.7359L12.4799 23.8099L12.4949 23.8139L12.5069 23.8099L12.6109 23.7359L12.6229 23.7199L12.6269 23.7029L12.6099 23.2759C12.6073 23.2653 12.6016 23.2593 12.5929 23.2579ZM12.8579 23.1449L12.8449 23.1469L12.6599 23.2399L12.6499 23.2499L12.6469 23.2609L12.6649 23.6909L12.6699 23.7029L12.6779 23.7099L12.8789 23.8029C12.8916 23.8063 12.9013 23.8036 12.9079 23.7949L12.9119 23.7809L12.8779 23.1669C12.8746 23.1549 12.8679 23.1476 12.8579 23.1449ZM12.1429 23.1469C12.1385 23.1443 12.1333 23.1434 12.1282 23.1445C12.1232 23.1456 12.1188 23.1487 12.1159 23.1529L12.1099 23.1669L12.0759 23.7809C12.0766 23.7929 12.0823 23.8009 12.0929 23.8049L12.1079 23.8029L12.3089 23.7099L12.3189 23.7019L12.3229 23.6909L12.3399 23.2609L12.3369 23.2489L12.3269 23.2389L12.1429 23.1469Z" fill="#1F1F1F"/>
<path d="M20 17.5C20.3852 17.5002 20.7556 17.6486 21.0344 17.9144C21.3132 18.1802 21.479 18.5431 21.4975 18.9279C21.516 19.3127 21.3858 19.6898 21.1338 19.9812C20.8818 20.2726 20.5274 20.4558 20.144 20.493L20 20.5H4C3.61478 20.4998 3.24441 20.3514 2.96561 20.0856C2.68682 19.8198 2.52099 19.4569 2.50248 19.0721C2.48396 18.6873 2.61419 18.3102 2.86618 18.0188C3.11816 17.7274 3.47258 17.5442 3.856 17.507L4 17.5H20ZM20 10.5C20.3978 10.5 20.7794 10.658 21.0607 10.9393C21.342 11.2206 21.5 11.6022 21.5 12C21.5 12.3978 21.342 12.7794 21.0607 13.0607C20.7794 13.342 20.3978 13.5 20 13.5H4C3.60218 13.5 3.22064 13.342 2.93934 13.0607C2.65804 12.7794 2.5 12.3978 2.5 12C2.5 11.6022 2.65804 11.2206 2.93934 10.9393C3.22064 10.658 3.60218 10.5 4 10.5H20ZM20 3.5C20.3978 3.5 20.7794 3.65804 21.0607 3.93934C21.342 4.22064 21.5 4.60218 21.5 5C21.5 5.39782 21.342 5.77936 21.0607 6.06066C20.7794 6.34196 20.3978 6.5 20 6.5H4C3.60218 6.5 3.22064 6.34196 2.93934 6.06066C2.65804 5.77936 2.5 5.39782 2.5 5C2.5 4.60218 2.65804 4.22064 2.93934 3.93934C3.22064 3.65804 3.60218 3.5 4 3.5H20Z" fill="#1F1F1F"/>
</svg>
