<svg width="19" height="19" viewBox="0 0 19 19" fill="none" xmlns="http://www.w3.org/2000/svg">
<path d="M14.918 6.23438C14.8092 7.74361 13.6897 8.90625 12.4688 8.90625C11.2479 8.90625 10.1264 7.74398 10.0195 6.23438C9.90821 4.66428 10.9981 3.5625 12.4688 3.5625C13.9394 3.5625 15.0293 4.69285 14.918 6.23438Z" stroke="#1F1F1F" stroke-width="1.5" stroke-linecap="round" stroke-linejoin="round"/>
<path d="M12.4686 11.2812C10.0502 11.2812 7.72454 12.4825 7.14192 14.8219C7.06474 15.1313 7.25882 15.4375 7.57684 15.4375H17.3607C17.6788 15.4375 17.8717 15.1313 17.7957 14.8219C17.213 12.445 14.8874 11.2812 12.4686 11.2812Z" stroke="#1F1F1F" stroke-width="1.5" stroke-miterlimit="10"/>
<path d="M7.42217 6.90012C7.33533 8.10543 6.43061 9.05469 5.45537 9.05469C4.48014 9.05469 3.57393 8.1058 3.48857 6.90012C3.39988 5.64619 4.28049 4.75 5.45537 4.75C6.63025 4.75 7.51086 5.6692 7.42217 6.90012Z" stroke="#1F1F1F" stroke-width="1.5" stroke-linecap="round" stroke-linejoin="round"/>
<path d="M7.64489 11.3556C6.97507 11.0487 6.23734 10.9307 5.45544 10.9307C3.52575 10.9307 1.66657 11.8899 1.20085 13.7584C1.13962 14.0055 1.29474 14.2501 1.54857 14.2501H5.71521" stroke="#1F1F1F" stroke-width="1.5" stroke-miterlimit="10" stroke-linecap="round"/>
</svg>
