<svg width="19" height="19" viewBox="0 0 19 19" fill="none" xmlns="http://www.w3.org/2000/svg">
<g clip-path="url(#clip0_794_859)">
<path d="M16.625 8.70833V2.375H2.375V16.625H8.70833M10.2917 11.0833L7.125 7.91667L2.77083 12.2708M15.0417 11.875V15.0417M15.0417 15.0417V18.2083M15.0417 15.0417H11.875M15.0417 15.0417H18.2083M14.0521 6.53125C14.0521 6.95118 13.8853 7.3539 13.5883 7.65084C13.2914 7.94777 12.8887 8.11458 12.4687 8.11458C12.0488 8.11458 11.6461 7.94777 11.3492 7.65084C11.0522 7.3539 10.8854 6.95118 10.8854 6.53125C10.8854 6.11132 11.0522 5.7086 11.3492 5.41166C11.6461 5.11473 12.0488 4.94792 12.4687 4.94792C12.8887 4.94792 13.2914 5.11473 13.5883 5.41166C13.8853 5.7086 14.0521 6.11132 14.0521 6.53125Z" stroke="#1F1F1F" stroke-width="2" stroke-linecap="square"/>
</g>
<defs>
<clipPath id="clip0_794_859">
<rect width="19" height="19" fill="white"/>
</clipPath>
</defs>
</svg>
