<svg width="173" height="45" viewBox="0 0 173 45" fill="none" xmlns="http://www.w3.org/2000/svg">
<path d="M10.2461 6.28597C10.9818 10.8456 13.6617 14.6084 17.9707 16.9546C20.7558 18.504 24.1188 19.6992 24.5918 19.3451C24.8545 19.0795 23.2255 17.0874 20.2828 13.9886C18.4962 12.1294 18.4436 11.9523 19.7048 12.8819C22.0169 14.4756 24.2765 16.4234 25.5902 17.8842L26.6937 19.1237L27.0616 17.84C27.6921 15.3167 25.5377 11.0227 22.5949 8.98633C21.4389 8.1895 17.3401 6.41877 14.3974 5.44487C12.9786 4.95792 11.4022 4.4267 10.8241 4.24963C9.9308 3.93975 9.87825 4.07256 10.2461 6.28597Z" fill="#81C784"/>
<path d="M35.4299 2.12487C32.3821 4.55963 30.2277 7.7912 29.7547 10.89C29.3343 13.5461 29.9649 17.9729 30.7531 17.7516C31.0684 17.663 32.1194 15.7152 33.0653 13.4133C34.7468 9.34059 34.7994 9.29632 34.4841 11.6868C34.2739 13.0149 33.7484 15.2725 33.2229 16.6448C32.6974 18.0614 32.3821 19.2124 32.5398 19.2124C33.2229 19.2124 35.7452 17.8401 36.6911 16.9105C39.844 14.033 40.4746 10.6686 39.1083 4.38255L38.1625 -5.73695e-07L35.4299 2.12487Z" fill="#81C784"/>
<path d="M15.3315 21.217C13.9127 21.5268 10.5496 22.545 7.8696 23.4746L3.03516 25.1568L4.13867 26.4406C5.61002 28.2113 9.44605 30.469 12.5464 31.3987C15.962 32.4168 22.1102 32.107 25.9988 30.7346C27.4701 30.1591 28.7313 29.5837 28.7313 29.4066C28.7313 28.7426 25.2105 28.0343 19.5353 27.5916C16.3824 27.326 13.7025 27.0604 13.5974 26.9718C13.4923 26.9276 14.8585 26.7062 16.6452 26.5292C19.8506 26.2193 26.1039 26.5734 28.8364 27.1932C30.6756 27.6801 30.6756 27.326 28.7838 25.1126C26.8921 22.8992 24.8953 21.7039 22.1627 21.0399C19.5879 20.4644 18.642 20.4644 15.3315 21.217Z" fill="#81C784"/>
<path d="M44.0499 38.5827V40.6763H33V26H43.5465V28.0935H36.4232V31.8705H42.5397V33.964H36.4232V38.5827H44.0499Z" fill="url(#paint0_linear_779_404)"/>
<path d="M53.4832 41C51.9394 41 50.6389 40.7266 49.5817 40.1799C48.5414 39.6187 47.7611 38.8705 47.2409 37.9353C46.7375 36.9856 46.4858 35.9209 46.4858 34.741C46.4858 33.5899 46.7458 32.5396 47.266 31.5899C47.7862 30.6403 48.5917 29.8849 49.6824 29.3237C50.7899 28.7482 52.1659 28.4604 53.8104 28.4604C54.5487 28.4604 55.2955 28.554 56.0506 28.741C56.8057 28.9281 57.4182 29.1727 57.888 29.4748L57.0826 31.4604C56.059 30.8561 54.9683 30.554 53.8104 30.554C52.5519 30.554 51.5786 30.9281 50.8906 31.6763C50.2026 32.4101 49.8586 33.4245 49.8586 34.7194C49.8586 36.0288 50.1691 37.0576 50.7899 37.8058C51.4276 38.5396 52.3253 38.9065 53.4832 38.9065C54.2215 38.9065 54.8844 38.7914 55.4717 38.5612C56.0758 38.3309 56.6966 38 57.3343 37.5683L58.3663 39.3597C57.779 39.8345 57.0658 40.2302 56.2268 40.5468C55.3878 40.8489 54.4732 41 53.4832 41Z" fill="url(#paint1_linear_779_404)"/>
<path d="M67.0026 41C65.4923 41 64.2086 40.7266 63.1515 40.1799C62.0943 39.6187 61.3056 38.8705 60.7854 37.9353C60.2652 36.9856 60.0051 35.9209 60.0051 34.741C60.0051 33.5324 60.2652 32.4604 60.7854 31.5252C61.3056 30.5755 62.0859 29.8273 63.1263 29.2806C64.1835 28.7338 65.4755 28.4604 67.0026 28.4604C68.5128 28.4604 69.7881 28.7482 70.8285 29.3237C71.8857 29.8849 72.6743 30.6403 73.1945 31.5899C73.7315 32.5396 74 33.5755 74 34.6978C74 35.8345 73.7315 36.8849 73.1945 37.8489C72.6743 38.7986 71.8857 39.5612 70.8285 40.1367C69.7881 40.7122 68.5128 41 67.0026 41ZM66.9774 38.9065C68.2024 38.9065 69.1085 38.5468 69.6958 37.8273C70.2999 37.0935 70.602 36.0576 70.602 34.7194C70.602 33.3957 70.2999 32.3741 69.6958 31.6547C69.0917 30.9209 68.1856 30.554 66.9774 30.554C65.7692 30.554 64.8631 30.9209 64.259 31.6547C63.6549 32.3741 63.3528 33.3957 63.3528 34.7194C63.3528 36.0576 63.6465 37.0935 64.2338 37.8273C64.8379 38.5468 65.7524 38.9065 66.9774 38.9065Z" fill="url(#paint2_linear_779_404)"/>
<path d="M88.1332 38.6068V40.6795H77V26.1496H87.626V28.2222H80.449V31.9615H86.6116V34.0342H80.449V38.6068H88.1332Z" fill="url(#paint3_linear_779_404)"/>
<path d="M103.8 28.906L98.3984 40.8077H95.1776L89.7759 28.906H93.1995L96.826 37.859L100.453 28.906H103.8Z" fill="url(#paint4_linear_779_404)"/>
<path d="M112.249 38.9274C113.061 38.9274 113.805 38.792 114.481 38.5214C115.174 38.2507 115.884 37.859 116.611 37.3462L117.626 39.1197C116.814 39.7464 115.977 40.2165 115.115 40.5299C114.27 40.8433 113.306 41 112.224 41C110.669 41 109.367 40.7293 108.319 40.188C107.27 39.6325 106.484 38.8917 105.96 37.9658C105.453 37.0256 105.199 35.9715 105.199 34.8034C105.199 33.6068 105.461 32.5456 105.985 31.6197C106.51 30.6795 107.296 29.9387 108.344 29.3974C109.392 28.8561 110.686 28.5855 112.224 28.5855C113.965 28.5855 115.327 28.9986 116.307 29.8248C117.305 30.6368 117.812 31.7835 117.829 33.265C117.829 33.735 117.736 34.2621 117.55 34.8462H108.496C108.513 36.1567 108.826 37.1681 109.434 37.8803C110.043 38.5783 110.981 38.9274 112.249 38.9274ZM112.072 30.5085C111.176 30.5085 110.449 30.7293 109.891 31.1709C109.333 31.5983 108.944 32.1895 108.724 32.9444H114.557V32.688C114.557 31.99 114.321 31.4558 113.847 31.0855C113.391 30.7009 112.799 30.5085 112.072 30.5085Z" fill="url(#paint5_linear_779_404)"/>
<path d="M128.834 28.5855C130.524 28.5855 131.682 28.963 132.308 29.7179C132.95 30.4587 133.272 31.5342 133.272 32.9444V40.6795H129.949V33.265C129.949 32.3248 129.789 31.6624 129.468 31.2778C129.163 30.8932 128.614 30.7009 127.819 30.7009C126.754 30.7009 125.647 31.0641 124.497 31.7906V40.6795H121.149V28.906H123.66L124.066 29.9957C125.689 29.0556 127.278 28.5855 128.834 28.5855Z" fill="url(#paint6_linear_779_404)"/>
<path d="M146.217 40.0598C145.727 40.3305 145.186 40.537 144.594 40.6795C144.019 40.8219 143.444 40.8932 142.869 40.8932C141.263 40.8932 140.063 40.5655 139.268 39.9103C138.474 39.2407 138.076 38.2863 138.076 37.047V30.9359H135.921V29.7393L138.431 29.0128L139.395 26H141.424V28.906H145.482V30.9359H141.424V36.4487C141.424 37.2892 141.576 37.8946 141.88 38.265C142.202 38.6211 142.692 38.7991 143.351 38.7991C144.061 38.7991 144.839 38.6211 145.684 38.265L146.217 40.0598Z" fill="url(#paint7_linear_779_404)"/>
<path d="M153.015 41C151.104 41 149.448 40.6866 148.044 40.0598L148.805 38.094C150.141 38.6496 151.527 38.9274 152.964 38.9274C153.793 38.9274 154.452 38.8063 154.942 38.5641C155.45 38.3077 155.703 37.9302 155.703 37.4316C155.703 37.0185 155.466 36.6909 154.993 36.4487C154.537 36.2066 153.81 35.9359 152.812 35.6368C151.882 35.3519 151.121 35.0883 150.53 34.8462C149.955 34.604 149.456 34.2692 149.033 33.8419C148.628 33.4003 148.425 32.859 148.425 32.2179C148.425 31.0356 148.932 30.1382 149.946 29.5256C150.961 28.8989 152.33 28.5855 154.055 28.5855C154.849 28.5855 155.627 28.6638 156.388 28.8205C157.166 28.963 157.85 29.1766 158.442 29.4615L157.681 31.4274C156.498 30.9145 155.314 30.6581 154.131 30.6581C153.387 30.6581 152.795 30.765 152.356 30.9786C151.933 31.1781 151.722 31.4915 151.722 31.9188C151.722 32.3319 151.941 32.6524 152.381 32.8803C152.821 33.094 153.539 33.3504 154.537 33.6496C155.483 33.9202 156.244 34.1838 156.819 34.4402C157.411 34.6823 157.918 35.0385 158.341 35.5085C158.78 35.9644 159 36.5484 159 37.2607C159 38.4288 158.476 39.3476 157.428 40.0171C156.396 40.6724 154.925 41 153.015 41Z" fill="url(#paint8_linear_779_404)"/>
<defs>
<linearGradient id="paint0_linear_779_404" x1="53.5003" y1="26" x2="53.5003" y2="62.5827" gradientUnits="userSpaceOnUse">
<stop stop-color="#52C258"/>
<stop offset="0.103365" stop-color="#3F8842"/>
<stop offset="0.990385" stop-color="#204922"/>
</linearGradient>
<linearGradient id="paint1_linear_779_404" x1="53.5003" y1="26" x2="53.5003" y2="62.5827" gradientUnits="userSpaceOnUse">
<stop stop-color="#52C258"/>
<stop offset="0.103365" stop-color="#3F8842"/>
<stop offset="0.990385" stop-color="#204922"/>
</linearGradient>
<linearGradient id="paint2_linear_779_404" x1="53.5003" y1="26" x2="53.5003" y2="62.5827" gradientUnits="userSpaceOnUse">
<stop stop-color="#52C258"/>
<stop offset="0.103365" stop-color="#3F8842"/>
<stop offset="0.990385" stop-color="#204922"/>
</linearGradient>
<linearGradient id="paint3_linear_779_404" x1="118" y1="4.78206" x2="118" y2="41" gradientUnits="userSpaceOnUse">
<stop stop-color="#52C258"/>
<stop offset="0.103365" stop-color="#3F8842"/>
<stop offset="0.990385" stop-color="#204922"/>
</linearGradient>
<linearGradient id="paint4_linear_779_404" x1="118" y1="4.78206" x2="118" y2="41" gradientUnits="userSpaceOnUse">
<stop stop-color="#52C258"/>
<stop offset="0.103365" stop-color="#3F8842"/>
<stop offset="0.990385" stop-color="#204922"/>
</linearGradient>
<linearGradient id="paint5_linear_779_404" x1="118" y1="4.78206" x2="118" y2="41" gradientUnits="userSpaceOnUse">
<stop stop-color="#52C258"/>
<stop offset="0.103365" stop-color="#3F8842"/>
<stop offset="0.990385" stop-color="#204922"/>
</linearGradient>
<linearGradient id="paint6_linear_779_404" x1="118" y1="4.78206" x2="118" y2="41" gradientUnits="userSpaceOnUse">
<stop stop-color="#52C258"/>
<stop offset="0.103365" stop-color="#3F8842"/>
<stop offset="0.990385" stop-color="#204922"/>
</linearGradient>
<linearGradient id="paint7_linear_779_404" x1="118" y1="4.78206" x2="118" y2="41" gradientUnits="userSpaceOnUse">
<stop stop-color="#52C258"/>
<stop offset="0.103365" stop-color="#3F8842"/>
<stop offset="0.990385" stop-color="#204922"/>
</linearGradient>
<linearGradient id="paint8_linear_779_404" x1="118" y1="4.78206" x2="118" y2="41" gradientUnits="userSpaceOnUse">
<stop stop-color="#52C258"/>
<stop offset="0.103365" stop-color="#3F8842"/>
<stop offset="0.990385" stop-color="#204922"/>
</linearGradient>
</defs>
</svg>
