<svg width="185" height="121" viewBox="0 0 185 121" fill="none" xmlns="http://www.w3.org/2000/svg">
<path d="M10.3064 10.6654C11.3579 18.4018 15.1886 24.7861 21.3476 28.767C25.3284 31.3958 30.1355 33.4238 30.8115 32.8229C31.187 32.3723 28.8586 28.9923 24.6524 23.7346C22.0987 20.58 22.0236 20.2795 23.8262 21.8568C27.1311 24.5608 30.3608 27.8657 32.2386 30.3443L33.8159 32.4474L34.3417 30.2692C35.243 25.9879 32.1635 18.7022 27.9573 15.2471C26.3049 13.8952 20.4463 10.8907 16.2401 9.23832C14.2121 8.41211 11.9588 7.51078 11.1326 7.21034C9.85573 6.68457 9.78062 6.9099 10.3064 10.6654Z" fill="#81C784"/>
<path d="M46.304 3.60534C41.9476 7.7364 38.8681 13.2194 38.1921 18.4772C37.5912 22.9838 38.4925 30.4948 39.6192 30.1193C40.0698 29.969 41.572 26.6642 42.924 22.7585C45.3275 15.8483 45.4026 15.7732 44.952 19.8292C44.6515 22.0825 43.9004 25.9131 43.1493 28.2415C42.3982 30.645 41.9476 32.5979 42.1729 32.5979C43.1493 32.5979 46.7546 30.2695 48.1066 28.6922C52.6132 23.81 53.5146 18.1016 51.5617 7.43596L50.2097 4.19617e-05L46.304 3.60534Z" fill="#81C784"/>
<path d="M17.5758 35.999C15.5478 36.5248 10.7408 38.2523 6.91014 39.8296L0 42.6838L1.57732 44.862C3.6804 47.8664 9.16345 51.6971 13.595 53.2744C18.4771 55.0019 27.265 54.4761 32.8232 52.1477C34.9263 51.1713 36.7289 50.1949 36.7289 49.8944C36.7289 48.7678 31.6965 47.566 23.5846 46.8149C19.078 46.3642 15.2474 45.9136 15.0972 45.7633C14.9469 45.6882 16.8998 45.3127 19.4536 45.0122C24.0353 44.4865 32.9734 45.0874 36.8791 46.1389C39.508 46.9651 39.508 46.3642 36.804 42.6087C34.1001 38.8532 31.2459 36.8252 27.3401 35.6986C23.6597 34.7221 22.3078 34.7221 17.5758 35.999Z" fill="#81C784"/>
<path d="M78.0184 66.5481V71.2979H52.9009V38H76.8741V42.7499H60.6822V51.3192H74.5855V56.069H60.6822V66.5481H78.0184Z" fill="url(#paint0_linear_221_258)"/>
<path d="M99.4612 72.0324C95.952 72.0324 92.9959 71.4122 90.5928 70.1717C88.2279 68.8985 86.4543 67.201 85.2718 65.0791C84.1275 62.9245 83.5553 60.5088 83.5553 57.8319C83.5553 55.2203 84.1466 52.8372 85.329 50.6826C86.5115 48.528 88.3424 46.8142 90.8217 45.541C93.3392 44.2352 96.4669 43.5823 100.205 43.5823C101.883 43.5823 103.581 43.7945 105.297 44.2189C107.014 44.6433 108.406 45.1982 109.474 45.8838L107.643 50.3888C105.316 49.0177 102.837 48.3322 100.205 48.3322C97.3442 48.3322 95.1319 49.1809 93.568 50.8785C92.0041 52.5434 91.2222 54.8448 91.2222 57.7829C91.2222 60.7536 91.9279 63.0877 93.3392 64.7852C94.7886 66.4501 96.8293 67.2826 99.4612 67.2826C101.14 67.2826 102.646 67.0214 103.981 66.4991C105.354 65.9768 106.766 65.226 108.215 64.2466L110.561 68.3109C109.226 69.3882 107.605 70.2859 105.698 71.0041C103.791 71.6897 101.712 72.0324 99.4612 72.0324Z" fill="url(#paint1_linear_221_258)"/>
<path d="M130.192 72.0324C126.759 72.0324 123.841 71.4122 121.438 70.1717C119.035 68.8985 117.242 67.201 116.06 65.0791C114.877 62.9245 114.286 60.5088 114.286 57.8319C114.286 55.0897 114.877 52.6576 116.06 50.5357C117.242 48.3811 119.016 46.6836 121.381 45.4431C123.784 44.2026 126.721 43.5823 130.192 43.5823C133.625 43.5823 136.524 44.2352 138.889 45.541C141.292 46.8142 143.085 48.528 144.267 50.6826C145.488 52.8372 146.098 55.1876 146.098 57.7339C146.098 60.3129 145.488 62.696 144.267 64.8832C143.085 67.0378 141.292 68.7679 138.889 70.0737C136.524 71.3796 133.625 72.0324 130.192 72.0324ZM130.135 67.2826C132.919 67.2826 134.979 66.4665 136.314 64.8342C137.687 63.1693 138.374 60.8189 138.374 57.7829C138.374 54.7795 137.687 52.4617 136.314 50.8295C134.941 49.1646 132.881 48.3322 130.135 48.3322C127.389 48.3322 125.329 49.1646 123.956 50.8295C122.582 52.4617 121.896 54.7795 121.896 57.7829C121.896 60.8189 122.563 63.1693 123.898 64.8342C125.272 66.4665 127.35 67.2826 130.135 67.2826Z" fill="url(#paint2_linear_221_258)"/>
<path d="M25.1175 114.891V119.641H0V86.3428H23.9732V91.0926H7.78129V99.6619H21.6846V104.412H7.78129V114.891H25.1175Z" fill="url(#paint3_linear_221_258)"/>
<path d="M60.4637 92.6596L48.2768 119.935H41.0104L28.8236 92.6596H36.5476L44.7294 113.177L52.9112 92.6596H60.4637Z" fill="url(#paint4_linear_221_258)"/>
<path d="M79.5262 115.625C81.3571 115.625 83.0354 115.315 84.5611 114.695C86.125 114.075 87.7271 113.177 89.3672 112.002L91.6559 116.066C89.825 117.502 87.9369 118.58 85.9915 119.298C84.0844 120.016 81.9102 120.375 79.469 120.375C75.9598 120.375 73.0227 119.755 70.6578 118.514C68.2929 117.241 66.5192 115.544 65.3368 113.422C64.1925 111.267 63.6203 108.852 63.6203 106.175C63.6203 103.432 64.2116 101 65.394 98.8785C66.5765 96.7239 68.3501 95.0264 70.715 93.7858C73.0799 92.5453 75.9979 91.9251 79.469 91.9251C83.3978 91.9251 86.4683 92.8718 88.6807 94.7652C90.9311 96.626 92.0754 99.2539 92.1136 102.649C92.1136 103.726 91.9038 104.934 91.4842 106.273H71.0583C71.0965 109.276 71.8021 111.594 73.1753 113.226C74.5485 114.826 76.6654 115.625 79.5262 115.625ZM79.1257 96.3322C77.1041 96.3322 75.4639 96.8382 74.2052 97.8502C72.9464 98.8295 72.0691 100.184 71.5733 101.914H84.7328V101.327C84.7328 99.7272 84.1988 98.5031 83.1308 97.6543C82.1009 96.7729 80.7659 96.3322 79.1257 96.3322Z" fill="url(#paint5_linear_221_258)"/>
<path d="M116.941 91.9251C120.756 91.9251 123.369 92.7902 124.78 94.5204C126.229 96.2179 126.954 98.6826 126.954 101.914V119.641H119.459V102.649C119.459 100.494 119.097 98.9764 118.372 98.095C117.685 97.2136 116.446 96.7729 114.653 96.7729C112.25 96.7729 109.751 97.6053 107.158 99.2702V119.641H99.6052V92.6596H105.27L106.185 95.1569C109.847 93.0024 113.432 91.9251 116.941 91.9251Z" fill="url(#paint6_linear_221_258)"/>
<path d="M156.16 118.221C155.054 118.841 153.834 119.314 152.499 119.641C151.202 119.967 149.905 120.13 148.608 120.13C144.984 120.13 142.276 119.38 140.483 117.878C138.691 116.344 137.794 114.156 137.794 111.316V97.3115H132.931V94.5693L138.595 92.9044L140.769 86H145.347V92.6596H154.501V97.3115H145.347V109.945C145.347 111.871 145.69 113.259 146.377 114.107C147.101 114.923 148.207 115.332 149.695 115.332C151.297 115.332 153.052 114.923 154.959 114.107L156.16 118.221Z" fill="url(#paint7_linear_221_258)"/>
<path d="M171.497 120.375C167.187 120.375 163.449 119.657 160.283 118.221L161.999 113.716C165.013 114.989 168.141 115.625 171.383 115.625C173.252 115.625 174.739 115.348 175.846 114.793C176.99 114.205 177.562 113.34 177.562 112.198C177.562 111.251 177.028 110.5 175.96 109.945C174.93 109.39 173.29 108.77 171.039 108.084C168.942 107.431 167.225 106.828 165.89 106.273C164.593 105.718 163.468 104.95 162.514 103.971C161.599 102.959 161.141 101.719 161.141 100.25C161.141 97.54 162.286 95.4834 164.574 94.0797C166.863 92.6433 169.952 91.9251 173.843 91.9251C175.636 91.9251 177.39 92.1046 179.107 92.4637C180.861 92.7902 182.406 93.2798 183.741 93.9327L182.025 98.4378C179.355 97.2625 176.685 96.6749 174.015 96.6749C172.336 96.6749 171.001 96.9198 170.01 97.4094C169.056 97.8665 168.579 98.5847 168.579 99.564C168.579 100.511 169.075 101.245 170.067 101.768C171.059 102.257 172.68 102.845 174.93 103.53C177.066 104.151 178.783 104.755 180.079 105.342C181.415 105.897 182.559 106.713 183.512 107.791C184.504 108.835 185 110.174 185 111.806C185 114.483 183.818 116.588 181.453 118.123C179.126 119.624 175.807 120.375 171.497 120.375Z" fill="url(#paint8_linear_221_258)"/>
<defs>
<linearGradient id="paint0_linear_221_258" x1="99.5" y1="38" x2="99.5" y2="121" gradientUnits="userSpaceOnUse">
<stop stop-color="#52C258"/>
<stop offset="0.103365" stop-color="#3F8842"/>
<stop offset="0.990385" stop-color="#204922"/>
</linearGradient>
<linearGradient id="paint1_linear_221_258" x1="99.5" y1="38" x2="99.5" y2="121" gradientUnits="userSpaceOnUse">
<stop stop-color="#52C258"/>
<stop offset="0.103365" stop-color="#3F8842"/>
<stop offset="0.990385" stop-color="#204922"/>
</linearGradient>
<linearGradient id="paint2_linear_221_258" x1="99.5" y1="38" x2="99.5" y2="121" gradientUnits="userSpaceOnUse">
<stop stop-color="#52C258"/>
<stop offset="0.103365" stop-color="#3F8842"/>
<stop offset="0.990385" stop-color="#204922"/>
</linearGradient>
<linearGradient id="paint3_linear_221_258" x1="92.5" y1="37.3752" x2="92.5" y2="120.375" gradientUnits="userSpaceOnUse">
<stop stop-color="#52C258"/>
<stop offset="0.103365" stop-color="#3F8842"/>
<stop offset="0.990385" stop-color="#204922"/>
</linearGradient>
<linearGradient id="paint4_linear_221_258" x1="92.5" y1="37.3752" x2="92.5" y2="120.375" gradientUnits="userSpaceOnUse">
<stop stop-color="#52C258"/>
<stop offset="0.103365" stop-color="#3F8842"/>
<stop offset="0.990385" stop-color="#204922"/>
</linearGradient>
<linearGradient id="paint5_linear_221_258" x1="92.5" y1="37.3752" x2="92.5" y2="120.375" gradientUnits="userSpaceOnUse">
<stop stop-color="#52C258"/>
<stop offset="0.103365" stop-color="#3F8842"/>
<stop offset="0.990385" stop-color="#204922"/>
</linearGradient>
<linearGradient id="paint6_linear_221_258" x1="92.5" y1="37.3752" x2="92.5" y2="120.375" gradientUnits="userSpaceOnUse">
<stop stop-color="#52C258"/>
<stop offset="0.103365" stop-color="#3F8842"/>
<stop offset="0.990385" stop-color="#204922"/>
</linearGradient>
<linearGradient id="paint7_linear_221_258" x1="92.5" y1="37.3752" x2="92.5" y2="120.375" gradientUnits="userSpaceOnUse">
<stop stop-color="#52C258"/>
<stop offset="0.103365" stop-color="#3F8842"/>
<stop offset="0.990385" stop-color="#204922"/>
</linearGradient>
<linearGradient id="paint8_linear_221_258" x1="92.5" y1="37.3752" x2="92.5" y2="120.375" gradientUnits="userSpaceOnUse">
<stop stop-color="#52C258"/>
<stop offset="0.103365" stop-color="#3F8842"/>
<stop offset="0.990385" stop-color="#204922"/>
</linearGradient>
</defs>
</svg>
