<svg width="134" height="83" viewBox="0 0 134 83" fill="none" xmlns="http://www.w3.org/2000/svg">
<path d="M7.46509 7.3539C8.22675 12.6882 11.0014 17.0903 15.4625 19.8351C18.3459 21.6478 21.8278 23.0461 22.3174 22.6318C22.5895 22.321 20.9029 19.9905 17.8563 16.3652C16.0065 14.1901 15.9521 13.9829 17.2578 15.0705C19.6516 16.9349 21.991 19.2137 23.3511 20.9227L24.4936 22.3728L24.8744 20.8709C25.5273 17.9189 23.2967 12.8954 20.2501 10.5131C19.0532 9.58084 14.8097 7.50927 11.763 6.3699C10.2941 5.80022 8.66198 5.17875 8.06354 4.97159C7.13866 4.60907 7.08426 4.76443 7.46509 7.3539Z" fill="#81C784"/>
<path d="M33.5392 2.48591C30.3837 5.33432 28.1532 9.11495 27.6635 12.7402C27.2283 15.8476 27.8811 21.0265 28.6972 20.7675C29.0236 20.664 30.1117 18.3852 31.091 15.6922C32.8319 10.9276 32.8863 10.8758 32.5599 13.6724C32.3423 15.2261 31.7982 17.8673 31.2542 19.4728C30.7102 21.1301 30.3837 22.4766 30.547 22.4766C31.2542 22.4766 33.8656 20.8711 34.8449 19.7835C38.1091 16.4172 38.762 12.4813 37.3475 5.12717L36.3682 2.28882e-05L33.5392 2.48591Z" fill="#81C784"/>
<path d="M12.7306 24.8217C11.2617 25.1842 7.7798 26.3754 5.00519 27.463L0 29.431L1.14249 30.9329C2.66581 33.0044 6.63731 35.6457 9.84716 36.7333C13.3834 37.9244 19.7487 37.5619 23.7746 35.9564C25.298 35.2832 26.6037 34.6099 26.6037 34.4027C26.6037 33.6259 22.9586 32.7973 17.0829 32.2794C13.8187 31.9686 11.0441 31.6579 10.9352 31.5543C10.8264 31.5025 12.2409 31.2436 14.0907 31.0364C17.4093 30.6739 23.8834 31.0882 26.7125 31.8133C28.6166 32.383 28.6166 31.9686 26.6581 29.3792C24.6995 26.7897 22.6321 25.3914 19.8031 24.6146C17.1373 23.9413 16.158 23.9413 12.7306 24.8217Z" fill="#81C784"/>
<path d="M56.5106 45.8856V49.1607H38.3174V26.2014H55.6818V29.4765H43.9536V35.3851H54.0241V38.6602H43.9536V45.8856H56.5106Z" fill="url(#paint0_linear_221_260)"/>
<path d="M72.0422 49.6672C69.5004 49.6672 67.3592 49.2395 65.6186 48.3841C63.9056 47.5063 62.6209 46.3358 61.7644 44.8727C60.9356 43.3871 60.5212 41.7214 60.5212 39.8757C60.5212 38.075 60.9494 36.4318 61.8059 34.9462C62.6624 33.4606 63.9885 32.2789 65.7844 31.401C67.6078 30.5007 69.8733 30.0505 72.5809 30.0505C73.7966 30.0505 75.026 30.1968 76.2693 30.4894C77.5126 30.782 78.521 31.1647 79.2946 31.6374L77.9684 34.7436C76.2831 33.7982 74.4873 33.3255 72.5809 33.3255C70.5088 33.3255 68.9063 33.9108 67.7736 35.0813C66.6408 36.2292 66.0744 37.8161 66.0744 39.8419C66.0744 41.8903 66.5856 43.4997 67.6078 44.6701C68.6577 45.8181 70.1358 46.3921 72.0422 46.3921C73.2578 46.3921 74.3491 46.212 75.3161 45.8519C76.3107 45.4917 77.333 44.974 78.3829 44.2987L80.082 47.1011C79.115 47.8439 77.9408 48.4629 76.5594 48.9581C75.178 49.4308 73.6722 49.6672 72.0422 49.6672Z" fill="url(#paint1_linear_221_260)"/>
<path d="M94.3013 49.6672C91.8148 49.6672 89.7012 49.2395 87.9606 48.3841C86.22 47.5063 84.9215 46.3358 84.065 44.8727C83.2085 43.3871 82.7803 41.7214 82.7803 39.8757C82.7803 37.9849 83.2085 36.308 84.065 34.8449C84.9215 33.3593 86.2062 32.1888 87.9192 31.3335C89.6597 30.4781 91.7871 30.0505 94.3013 30.0505C96.7878 30.0505 98.8876 30.5007 100.601 31.401C102.341 32.2789 103.64 33.4606 104.496 34.9462C105.38 36.4318 105.822 38.0525 105.822 39.8082C105.822 41.5864 105.38 43.2295 104.496 44.7377C103.64 46.2233 102.341 47.4162 100.601 48.3166C98.8876 49.217 96.7878 49.6672 94.3013 49.6672ZM94.2599 46.3921C96.2767 46.3921 97.7687 45.8294 98.7356 44.7039C99.7303 43.5559 100.228 41.9353 100.228 39.8419C100.228 37.7711 99.7303 36.1729 98.7356 35.0475C97.741 33.8995 96.2491 33.3255 94.2599 33.3255C92.2706 33.3255 90.7787 33.8995 89.7841 35.0475C88.7895 36.1729 88.2921 37.7711 88.2921 39.8419C88.2921 41.9353 88.7756 43.5559 89.7426 44.7039C90.7373 45.8294 92.243 46.3921 94.2599 46.3921Z" fill="url(#paint2_linear_221_260)"/>
<path d="M18.1932 79.2185V82.4935H0V59.5343H17.3644V62.8093H5.63618V68.718H15.7067V71.9931H5.63618V79.2185H18.1932Z" fill="url(#paint3_linear_221_260)"/>
<path d="M43.7953 63.8898L34.9681 82.6961H29.7049L20.8776 63.8898H26.4723L32.3986 78.0367L38.3249 63.8898H43.7953Z" fill="url(#paint4_linear_221_260)"/>
<path d="M57.6028 79.7249C58.9289 79.7249 60.1446 79.5111 61.2497 79.0834C62.3825 78.6557 63.5429 78.0367 64.7309 77.2264L66.3886 80.0288C65.0624 81.0192 63.6948 81.762 62.2858 82.2572C60.9044 82.7524 59.3295 83 57.5613 83C55.0195 83 52.8921 82.5723 51.1792 81.717C49.4662 80.8391 48.1815 79.6686 47.325 78.2056C46.4962 76.72 46.0818 75.0543 46.0818 73.2085C46.0818 71.3178 46.51 69.6408 47.3665 68.1778C48.223 66.6922 49.5077 65.5217 51.2206 64.6663C52.9336 63.811 55.0471 63.3833 57.5613 63.3833C60.407 63.3833 62.6311 64.0361 64.2336 65.3416C65.8636 66.6246 66.6925 68.4366 66.7201 70.7776C66.7201 71.5204 66.5682 72.3532 66.2642 73.2761H51.4693C51.4969 75.3469 52.008 76.945 53.0027 78.0705C53.9973 79.1735 55.5306 79.7249 57.6028 79.7249ZM57.3127 66.422C55.8484 66.422 54.6604 66.7709 53.7486 67.4687C52.8369 68.144 52.2014 69.0781 51.8423 70.2711H61.374V69.8659C61.374 68.763 60.9872 67.9189 60.2136 67.3337C59.4677 66.7259 58.5007 66.422 57.3127 66.422Z" fill="url(#paint5_linear_221_260)"/>
<path d="M84.7036 63.3833C87.4664 63.3833 89.3589 63.9798 90.3812 65.1728C91.431 66.3433 91.956 68.0427 91.956 70.2711V82.4935H86.527V70.7776C86.527 69.292 86.2645 68.2453 85.7396 67.6375C85.2423 67.0298 84.3444 66.7259 83.0459 66.7259C81.3053 66.7259 79.4956 67.2999 77.6169 68.4479V82.4935H72.1465V63.8898H76.2493L76.9124 65.6117C79.5647 64.1261 82.1617 63.3833 84.7036 63.3833Z" fill="url(#paint6_linear_221_260)"/>
<path d="M113.111 81.5144C112.31 81.9421 111.425 82.2685 110.458 82.4935C109.519 82.7186 108.58 82.8312 107.64 82.8312C105.016 82.8312 103.054 82.3135 101.756 81.278C100.457 80.2201 99.8077 78.712 99.8077 76.7537V67.0973H96.2851V65.2066L100.388 64.0586L101.963 59.2979H105.278V63.8898H111.909V67.0973H105.278V75.8083C105.278 77.1364 105.527 78.093 106.024 78.6782C106.549 79.241 107.35 79.5223 108.428 79.5223C109.588 79.5223 110.859 79.241 112.24 78.6782L113.111 81.5144Z" fill="url(#paint7_linear_221_260)"/>
<path d="M124.22 83C121.098 83 118.39 82.5048 116.097 81.5144L117.34 78.4081C119.523 79.286 121.788 79.7249 124.137 79.7249C125.49 79.7249 126.568 79.5336 127.369 79.1509C128.198 78.7458 128.612 78.1493 128.612 77.3615C128.612 76.7087 128.226 76.191 127.452 75.8083C126.706 75.4257 125.518 74.998 123.888 74.5253C122.368 74.0751 121.125 73.6587 120.158 73.2761C119.219 72.8934 118.404 72.3644 117.713 71.6892C117.05 70.9914 116.718 70.136 116.718 69.1231C116.718 67.2549 117.547 65.8368 119.205 64.8689C120.863 63.8785 123.101 63.3833 125.919 63.3833C127.217 63.3833 128.488 63.5071 129.731 63.7547C131.002 63.9798 132.121 64.3174 133.088 64.7676L131.845 67.8739C129.911 67.0636 127.977 66.6584 126.043 66.6584C124.827 66.6584 123.86 66.8272 123.142 67.1648C122.451 67.48 122.106 67.9752 122.106 68.6504C122.106 69.3032 122.465 69.8097 123.184 70.1698C123.902 70.5074 125.076 70.9126 126.706 71.3853C128.253 71.813 129.497 72.2294 130.436 72.6346C131.403 73.0172 132.232 73.5799 132.923 74.3227C133.641 75.043 134 75.9659 134 77.0914C134 78.9371 133.144 80.3889 131.431 81.4469C129.745 82.4823 127.342 83 124.22 83Z" fill="url(#paint8_linear_221_260)"/>
<defs>
<linearGradient id="paint0_linear_221_260" x1="72.0703" y1="26.2014" x2="72.0703" y2="83.4308" gradientUnits="userSpaceOnUse">
<stop stop-color="#52C258"/>
<stop offset="0.103365" stop-color="#3F8842"/>
<stop offset="0.990385" stop-color="#204922"/>
</linearGradient>
<linearGradient id="paint1_linear_221_260" x1="72.0703" y1="26.2014" x2="72.0703" y2="83.4308" gradientUnits="userSpaceOnUse">
<stop stop-color="#52C258"/>
<stop offset="0.103365" stop-color="#3F8842"/>
<stop offset="0.990385" stop-color="#204922"/>
</linearGradient>
<linearGradient id="paint2_linear_221_260" x1="72.0703" y1="26.2014" x2="72.0703" y2="83.4308" gradientUnits="userSpaceOnUse">
<stop stop-color="#52C258"/>
<stop offset="0.103365" stop-color="#3F8842"/>
<stop offset="0.990385" stop-color="#204922"/>
</linearGradient>
<linearGradient id="paint3_linear_221_260" x1="67" y1="25.7706" x2="67" y2="83" gradientUnits="userSpaceOnUse">
<stop stop-color="#52C258"/>
<stop offset="0.103365" stop-color="#3F8842"/>
<stop offset="0.990385" stop-color="#204922"/>
</linearGradient>
<linearGradient id="paint4_linear_221_260" x1="67" y1="25.7706" x2="67" y2="83" gradientUnits="userSpaceOnUse">
<stop stop-color="#52C258"/>
<stop offset="0.103365" stop-color="#3F8842"/>
<stop offset="0.990385" stop-color="#204922"/>
</linearGradient>
<linearGradient id="paint5_linear_221_260" x1="67" y1="25.7706" x2="67" y2="83" gradientUnits="userSpaceOnUse">
<stop stop-color="#52C258"/>
<stop offset="0.103365" stop-color="#3F8842"/>
<stop offset="0.990385" stop-color="#204922"/>
</linearGradient>
<linearGradient id="paint6_linear_221_260" x1="67" y1="25.7706" x2="67" y2="83" gradientUnits="userSpaceOnUse">
<stop stop-color="#52C258"/>
<stop offset="0.103365" stop-color="#3F8842"/>
<stop offset="0.990385" stop-color="#204922"/>
</linearGradient>
<linearGradient id="paint7_linear_221_260" x1="67" y1="25.7706" x2="67" y2="83" gradientUnits="userSpaceOnUse">
<stop stop-color="#52C258"/>
<stop offset="0.103365" stop-color="#3F8842"/>
<stop offset="0.990385" stop-color="#204922"/>
</linearGradient>
<linearGradient id="paint8_linear_221_260" x1="67" y1="25.7706" x2="67" y2="83" gradientUnits="userSpaceOnUse">
<stop stop-color="#52C258"/>
<stop offset="0.103365" stop-color="#3F8842"/>
<stop offset="0.990385" stop-color="#204922"/>
</linearGradient>
</defs>
</svg>
